<?xml version="1.0" encoding="UTF-8"?>
<svg width="17" height="35" viewBox="0 0 17 35" fill="none" xmlns="http://www.w3.org/2000/svg">
  <path d="M8.5 0C3.8 0 0 3.8 0 8.5C0 13.2 3.8 17 8.5 17C13.2 17 17 13.2 17 8.5C17 3.8 13.2 0 8.5 0ZM8.5 15C4.9 15 2 12.1 2 8.5C2 4.9 4.9 2 8.5 2C12.1 2 15 4.9 15 8.5C15 12.1 12.1 15 8.5 15Z" fill="#535353"/>
  <path d="M8.5 17C3.8 17 0 20.8 0 25.5C0 30.2 3.8 34 8.5 34C13.2 34 17 30.2 17 25.5C17 20.8 13.2 17 8.5 17ZM8.5 32C4.9 32 2 29.1 2 25.5C2 21.9 4.9 19 8.5 19C12.1 19 15 21.9 15 25.5C15 29.1 12.1 32 8.5 32Z" fill="#535353"/>
</svg> 